<svg xmlns="http://www.w3.org/2000/svg" width="700" height="400" viewBox="0 0 700 400">
  <rect width="700" height="400" fill="#fff"/>
  <rect x="40" y="40" width="260" height="320" rx="16" fill="#f0f4ff" stroke="#b3b3ff" stroke-width="2"/>
  <text x="170" y="65" font-size="18" font-weight="bold" text-anchor="middle" fill="#2d2d6a">Portfolio Frontend</text>
  <rect x="70" y="90" width="200" height="32" rx="8" fill="#e0e7ff"/>
  <text x="170" y="112" font-size="15" text-anchor="middle" fill="#2d2d6a">Next.js 16 (App Router)</text>
  <rect x="70" y="130" width="200" height="32" rx="8" fill="#e0e7ff"/>
  <text x="170" y="152" font-size="15" text-anchor="middle" fill="#2d2d6a">React 19</text>
  <rect x="70" y="170" width="200" height="32" rx="8" fill="#e0e7ff"/>
  <text x="170" y="192" font-size="15" text-anchor="middle" fill="#2d2d6a">Tailwind CSS</text>
  <rect x="70" y="210" width="200" height="32" rx="8" fill="#e0e7ff"/>
  <text x="170" y="232" font-size="15" text-anchor="middle" fill="#2d2d6a">Framer Motion</text>
  <rect x="70" y="250" width="200" height="32" rx="8" fill="#e0e7ff"/>
  <text x="170" y="272" font-size="15" text-anchor="middle" fill="#2d2d6a">Lucide Icons</text>
  <rect x="70" y="290" width="200" height="32" rx="8" fill="#e0e7ff"/>
  <text x="170" y="312" font-size="15" text-anchor="middle" fill="#2d2d6a">Custom API Routes</text>
  <rect x="70" y="330" width="200" height="32" rx="8" fill="#e0e7ff"/>
  <text x="170" y="352" font-size="15" text-anchor="middle" fill="#2d2d6a">Blog Integration</text>
  <rect x="420" y="120" width="220" height="120" rx="16" fill="#e6fffa" stroke="#00bfae" stroke-width="2"/>
  <text x="530" y="145" font-size="18" font-weight="bold" text-anchor="middle" fill="#00897b">Blog-Veille-Tech Repo</text>
  <rect x="450" y="170" width="160" height="32" rx="8" fill="#b2f5ea"/>
  <text x="530" y="192" font-size="15" text-anchor="middle" fill="#00897b">MDX Articles</text>
  <rect x="450" y="210" width="160" height="32" rx="8" fill="#b2f5ea"/>
  <text x="530" y="232" font-size="15" text-anchor="middle" fill="#00897b">GitHub API</text>
  <line x1="270" y1="345" x2="420" y2="185" stroke="#888" stroke-width="2" marker-end="url(#arrow)"/>
  <line x1="270" y1="305" x2="420" y2="185" stroke="#888" stroke-width="2" marker-end="url(#arrow)"/>
  <defs>
    <marker id="arrow" markerWidth="10" markerHeight="10" refX="10" refY="5" orient="auto" markerUnits="strokeWidth">
      <path d="M0,0 L10,5 L0,10 L3,5 z" fill="#888" />
    </marker>
  </defs>
</svg>
